<?xml version="1.0"?>
<svg width="360" height="120" xmlns="http://www.w3.org/2000/svg">
<path d="m289.1,77l14.3,0l0,2.2l-11.9,0l0,7.1l10.6,0l0,2.2l-10.6,0l0,7.4l12.3,0l0,2.2l-14.7,0l0,-21.1zm-34.7,0l2.5,0l6.9,11.1l6.7,-11.1l2.5,0l-8,13.8l0,7.3l-2.4,0l0,-7.2l-8.2,-13.9zm-34.3,0l4,0l0,9l10.6,0l0,-9l4,0l0,21.1l-4,0l0,-8.5l-10.6,0l0,8.5l-4,0l0,-21.1zm-66.5,0l15.5,0l0,3.5l-11.5,0l0,5.3l10.3,0l0,3.5l-10.3,0l0,5.3l11.8,0l0,3.5l-15.8,0l0,-21.1zm-33,0l17.2,0l0,3.6l-6.6,0l0,17.5l-4.1,0l0,-17.5l-6.5,0l0,-3.6zm207.3,-0.1c1.2,0 2.4,0.2 3.6,0.6c1.2,0.3 2.2,0.8 3.1,1.4l-1,2.1c-1,-0.6 -2,-1 -3,-1.3c-1,-0.3 -2,-0.4 -2.9,-0.4c-1.3,0 -2.4,0.2 -3.2,0.7c-0.8,0.6 -1.2,1.3 -1.3,2.2c0.1,1 0.5,1.9 1.3,2.4c0.8,0.6 1.8,1 2.9,1.4c1.2,0.3 2.4,0.7 3.5,1.1c1.2,0.4 2.2,1.1 3,1.9c0.8,0.8 1.2,2 1.2,3.5c0,1.7 -0.7,3.1 -2.1,4.2c-1.4,1 -3.2,1.5 -5.5,1.5c-1.6,0 -3.1,-0.3 -4.5,-0.9c-1.4,-0.6 -2.6,-1.3 -3.6,-2.3l1.1,-2.1c1,1 2.1,1.7 3.3,2.2c1.3,0.5 2.5,0.8 3.7,0.8c1.5,0 2.8,-0.3 3.6,-0.9c0.9,-0.6 1.3,-1.4 1.4,-2.4c-0.1,-1.1 -0.5,-1.9 -1.3,-2.5c-0.8,-0.6 -1.7,-1 -2.9,-1.4c-1.2,-0.3 -2.3,-0.7 -3.5,-1.1c-1.2,-0.4 -2.2,-1 -3,-1.8c-0.8,-0.8 -1.2,-2 -1.2,-3.4c0,-1.7 0.7,-3 2,-4c1.3,-1 3.1,-1.5 5.3,-1.5zm-132.3,0c1.6,0 3,0.3 4.5,0.9c1.4,0.6 2.6,1.4 3.7,2.5l-2.4,2.9c-0.7,-0.8 -1.6,-1.5 -2.6,-2c-1,-0.5 -2.1,-0.7 -3.1,-0.7c-2.1,0 -3.7,0.7 -5.1,2c-1.3,1.3 -2,3 -2,5c0,2 0.7,3.7 2,5c1.4,1.3 3,2 5.1,2c1,0 2,-0.2 3,-0.6c1,-0.5 1.9,-1.1 2.7,-1.9l2.4,2.7c-1.1,1.1 -2.4,2 -3.8,2.6c-1.5,0.7 -3,1 -4.5,1c-2.1,0 -4,-0.5 -5.6,-1.4c-1.7,-1 -3,-2.2 -4,-3.8c-0.9,-1.7 -1.4,-3.5 -1.4,-5.6c0,-2 0.5,-3.8 1.5,-5.4c0.9,-1.6 2.3,-2.9 3.9,-3.8c1.7,-0.9 3.6,-1.4 5.7,-1.4zm-140.1,-19.2l15.5,0l8.4,12.2l11,-12.2l15.9,0l-20.1,22.2l13.9,20.1l-15.5,0l-7.2,-10.3l-9.3,10.3l-15.9,0l18.4,-20.3l-15.1,-22zm81.4,-18.6l0,3.9l1.5,0c0.4,0 0.7,-0.1 1,-0.4c0.2,-0.2 0.4,-0.5 0.4,-0.9l0,-2.6l-2.9,0zm-10,0l0,3.9l2.2,0l0,-3.9l-2.2,0zm177.4,-1.2l5.9,0l-4.1,21.2l-5.8,0l4,-21.2zm-167.4,-8.6l0,4.3l2.9,0l0,-4.3l-2.9,0zm-10,0l0,4.3l2.2,0l0,-4.3l-2.2,0zm187.7,-5.8l7.5,0l-0.6,3.3l10.3,0l0,1.9l0,4.1l0,5.1l5.3,0l3,21.2l-6.1,0l-2.2,-15.7l0,17.4l0,1.4c0,1.3 -0.4,2.3 -1.3,3.2c-0.9,0.9 -1.9,1.4 -3.2,1.4l-8.4,0l2.7,-6l1.4,0c0.4,0 0.7,-0.1 0.9,-0.4c0.3,-0.2 0.4,-0.5 0.4,-0.9l0,-26.7l-3.7,0l-5.4,34l-7.5,0l5.4,-34l-7.6,0l0,-6l8.5,0l0.6,-3.3zm-23.4,-0.1l7.4,0l0,8.9l4.1,0l0,6l-4.1,0l0,28.5l-7.4,0l0,-28.5l-4.2,0l0,-6l4.2,0l0,-8.9zm-93.2,0l8.3,0l0,6.5l21.8,0l0,5.9l-21.8,0l0,9.1l19.9,0l0,5.9l-19.9,0l0,10l21.2,0l0,5.9l-50.7,0l0,-5.9l21.2,0l0,-10l-19.9,0l0,-5.9l19.9,0l0,-9.1l-20.6,0l-0.1,0l-1,0l3,-11.3l8.3,0l-1.9,5.4l12.3,0l0,-6.5zm67,-0.1l7.4,0l0,4.7l10.6,0l0,5.5l-10.6,0l0,4.7l10.6,0l0,5.5c-0.4,1.8 -1.5,3.8 -3.1,6.1c-1.6,2.2 -3.6,4.5 -5.9,6.6c1.6,1.2 3.4,2.2 5.2,3.2c1.8,0.9 3.5,1.5 5.3,1.9l0,5.6c-2.6,-0.3 -5.2,-1.1 -7.9,-2.3c-2.6,-1.1 -5.1,-2.6 -7.5,-4.4c-2.5,1.8 -5,3.3 -7.6,4.4c-2.7,1.2 -5.3,2 -7.9,2.3l0,-5.6c1.7,-0.4 3.5,-1 5.3,-1.9c1.8,-1 3.5,-2 5.2,-3.2c-2,-1.8 -3.7,-3.7 -5.2,-5.6c-1.5,-1.9 -2.6,-3.7 -3.2,-5.4l6.8,0c0.6,0.9 1.5,2 2.6,3.2c1.2,1.2 2.5,2.5 4,3.8c2,-1.8 3.7,-3.6 5,-5.2c1.4,-1.6 2.1,-2.8 2.3,-3.5l-21.3,0l0,-5.5l9.9,0l0,-4.7l-9.9,0l0,-5.5l9.9,0l0,-4.7zm-116.3,0l16.5,0l3.9,0l3.9,0l-4.6,18.3l3.7,0l1,0l-0.9,10.2l-6.5,0l0.3,-4.2l-1.4,0l0,12.6c0,1 -0.1,1.8 -0.5,2.6c-0.4,0.8 -0.9,1.5 -1.5,2.1c-0.6,0.6 -1.3,1.1 -2.1,1.5c-0.8,0.3 -1.6,0.5 -2.5,0.5l-9.3,0l2.3,-5.2l3.9,0c0.5,0 1,-0.2 1.3,-0.6c0.4,-0.3 0.6,-0.8 0.6,-1.4l0,-12.1l-8.1,0l0,-6l4.1,0l-3,-8.8l7.9,0l3,8.5l3,-12l-15,0l0,-6zm-28.7,0l4.1,0l2.8,0l12.9,0l2.1,0l4.7,0l0,10.3l0,5.5l0,4.2c0,0.8 -0.2,1.5 -0.5,2.2c-0.3,0.7 -0.7,1.3 -1.2,1.8c-0.5,0.5 -1.1,0.9 -1.8,1.2c-0.7,0.3 -1.4,0.5 -2.2,0.5l-4,0l0,2.8l8.4,0l0,5.5l-8.4,0l0,3.4l9.3,-0.3l0,5.3l-26.1,1.2l0,-5.5l9,-0.3l0,-3.8l-8.3,0l0,-5.5l8.3,0l0,-2.8l-9.1,0l0,-5.9l0,-0.1l0,-3.9l0,-5.5l0,-10.3zm119.1,-0.2l7.7,0l0,3.7l6.8,0l0,6l-6.8,0l0,5.2l8.4,0l-8.4,10.6l0,11.9c0,0.9 -0.1,1.8 -0.5,2.5c-0.3,0.8 -0.8,1.5 -1.4,2.1c-0.6,0.6 -1.3,1.1 -2.1,1.4c-0.8,0.4 -1.7,0.6 -2.6,0.6l-6.3,0l2.4,-5.2l0.9,0c0.6,0 1,-0.2 1.4,-0.6c0.3,-0.3 0.5,-0.8 0.5,-1.3l0,-3.6l-7.8,0l7.8,-9.9l0,-13.7l-6.4,0l0,-6l6.4,0l0,-3.7zm-163,-3.1l12.9,0l-2.6,37.7l-13,0l2.7,-37.7zm-32.4,0l13,0l-4.7,80.2l-13.1,0l0,0l-18.9,-11.8l0.8,-14.6l18.9,12l4,-65.8z" fill="url(#TECHYES)"/>
<defs>
<linearGradient id="TECHYES" x1="0" x2="1" y1="0" y2="1">
<stop offset="0" stop-color="#3399EE"/>
<stop offset="1" stop-color="#22DDCC"/>
</linearGradient>
</defs>
</svg>